<?xml version="1.0" encoding="UTF-8"?>
<!DOCTYPE svg PUBLIC "-//W3C//DTD SVG 1.1//EN" "http://www.w3.org/Graphics/SVG/1.1/DTD/svg11.dtd">
<svg xmlns="http://www.w3.org/2000/svg" version="1.1" width="632px" height="243px" style="shape-rendering:geometricPrecision; text-rendering:geometricPrecision; image-rendering:optimizeQuality; fill-rule:evenodd; clip-rule:evenodd" xmlns:xlink="http://www.w3.org/1999/xlink">
<g><path style="opacity:0.491" fill="#eefefe" d="M 518.5,20.5 C 512.128,20.8717 505.961,20.205 500,18.5C 498.019,18.6292 496.353,19.2958 495,20.5C 493.938,19.1007 492.605,18.1007 491,17.5C 488.23,18.3479 485.397,18.6813 482.5,18.5C 485.298,17.5265 488.298,16.8598 491.5,16.5C 500.744,17.1205 509.744,18.4538 518.5,20.5 Z"/></g>
<g><path style="opacity:0.994" fill="#fcfdfc" d="M 127.5,24.5 C 127.167,24.5 126.833,24.5 126.5,24.5C 121.732,24.2375 117.398,25.2375 113.5,27.5C 110.194,26.9133 109.194,25.2466 110.5,22.5C 113.545,22.5079 116.545,22.8413 119.5,23.5C 119.5,22.5 119.5,21.5 119.5,20.5C 128.989,18.9157 138.656,18.249 148.5,18.5C 148.33,19.8221 148.663,20.9887 149.5,22C 149,22.1667 148.5,22.3333 148,22.5C 144.292,22.8132 140.459,22.4798 136.5,21.5C 132.957,21.5569 129.957,22.5569 127.5,24.5 Z"/></g>
<g><path style="opacity:0.998" fill="#fcfefe" d="M 304.5,18.5 C 305.167,18.5 305.833,18.5 306.5,18.5C 317.236,18.293 327.902,18.9596 338.5,20.5C 343.289,20.6538 347.622,21.9871 351.5,24.5C 351.312,26.1033 351.812,27.4366 353,28.5C 358.063,28.1098 362.229,30.1098 365.5,34.5C 367.323,35.7472 369.323,36.4139 371.5,36.5C 373.909,37.7007 375.909,39.3674 377.5,41.5C 377.343,42.8734 377.51,44.2068 378,45.5C 380.963,48.4484 384.13,51.115 387.5,53.5C 389.262,54.2623 390.262,55.5956 390.5,57.5C 390.672,59.4918 390.005,61.1585 388.5,62.5C 390.045,63.4519 391.712,63.7852 393.5,63.5C 394.461,66.4261 395.127,69.4261 395.5,72.5C 396.5,72.5 397.5,72.5 398.5,72.5C 401.602,80.5709 403.936,88.9042 405.5,97.5C 404.542,97.9528 403.708,98.6195 403,99.5C 402.891,109.95 402.057,120.283 400.5,130.5C 388.262,166.389 363.262,187.056 325.5,192.5C 318.05,191.031 310.383,190.197 302.5,190C 303.711,189.107 303.711,188.274 302.5,187.5C 300.677,188.747 298.677,189.414 296.5,189.5C 295.833,189.5 295.167,189.5 294.5,189.5C 291.807,187.425 288.974,185.425 286,183.5C 283.973,183.986 281.807,183.986 279.5,183.5C 274.012,179.587 268.345,175.921 262.5,172.5C 259.573,171.243 257.239,169.243 255.5,166.5C 252.526,162.688 250.526,158.355 249.5,153.5C 246.729,154.773 245.062,153.773 244.5,150.5C 244.709,149.914 245.043,149.414 245.5,149C 242.622,147.284 240.288,145.117 238.5,142.5C 223.855,109.508 227.355,78.5082 249,49.5C 256.618,40.0289 265.785,32.6955 276.5,27.5C 285.298,24.5486 294.298,22.0486 303.5,20C 304.056,19.6174 304.389,19.1174 304.5,18.5 Z M 286.5,41.5 C 289.908,73.3574 294.075,105.024 299,136.5C 300.128,134.655 300.628,132.655 300.5,130.5C 304.932,119.381 309.099,108.047 313,96.5C 314.699,95.5939 316.533,95.2606 318.5,95.5C 320.017,95.5106 321.184,96.1772 322,97.5C 324.272,104.355 326.772,111.021 329.5,117.5C 330.435,121.969 331.768,126.303 333.5,130.5C 333.284,132.681 334.117,134.347 336,135.5C 336.333,135.167 336.667,134.833 337,134.5C 337.391,129.146 337.891,123.812 338.5,118.5C 341.625,92.1717 345.291,65.8384 349.5,39.5C 353.092,36.8012 356.426,37.1345 359.5,40.5C 359.5,41.8333 359.5,43.1667 359.5,44.5C 358.619,54.5264 357.619,64.5264 356.5,74.5C 355.662,74.8417 355.328,75.5084 355.5,76.5C 354.833,83.5 354.167,90.5 353.5,97.5C 351.195,111.924 349.195,126.59 347.5,141.5C 347.265,151.799 345.598,161.799 342.5,171.5C 339.315,171.98 336.481,171.314 334,169.5C 332.786,165.355 331.286,161.355 329.5,157.5C 326.218,145.153 322.052,133.153 317,121.5C 313.196,131.745 309.696,142.079 306.5,152.5C 304.577,157.768 302.744,163.101 301,168.5C 296.837,172.747 293.171,172.414 290,167.5C 284.636,125.265 279.636,83.2645 275,41.5C 278.626,36.8347 282.46,36.8347 286.5,41.5 Z"/></g>
<g><path style="opacity:1" fill="#fbfdfd" d="M 518.5,20.5 C 521.777,22.2942 525.111,24.2942 528.5,26.5C 529.086,26.2907 529.586,25.9574 530,25.5C 531.993,26.914 534.16,27.914 536.5,28.5C 537.492,28.3284 538.158,28.6618 538.5,29.5C 540.06,31.1294 539.727,32.296 537.5,33C 539.929,33.4512 540.096,34.2845 538,35.5C 536.371,34.4348 535.204,33.1014 534.5,31.5C 528.767,29.0356 522.767,27.369 516.5,26.5C 516.167,26.5 515.833,26.5 515.5,26.5C 514.624,26.6309 513.957,26.2975 513.5,25.5C 514.921,22.5717 513.921,21.2384 510.5,21.5C 510.798,24.3356 510.131,24.8356 508.5,23C 504.459,22.1735 500.459,22.3401 496.5,23.5C 495.757,24.1818 495.091,24.8485 494.5,25.5C 493.833,25.5 493.5,25.1667 493.5,24.5C 492.486,23.2353 490.986,22.5687 489,22.5C 486.456,22.336 484.29,23.0027 482.5,24.5C 481.833,24.5 481.167,24.5 480.5,24.5C 475.642,24.5263 470.975,25.0263 466.5,26C 467.641,25.2588 467.641,24.4255 466.5,23.5C 468.544,22.9348 470.21,21.9348 471.5,20.5C 471.5,19.8333 471.833,19.5 472.5,19.5C 475.304,20.6378 478.304,20.8045 481.5,20C 482.056,19.6174 482.389,19.1174 482.5,18.5C 485.397,18.6813 488.23,18.3479 491,17.5C 492.605,18.1007 493.938,19.1007 495,20.5C 496.353,19.2958 498.019,18.6292 500,18.5C 505.961,20.205 512.128,20.8717 518.5,20.5 Z"/></g>
<g><path style="opacity:0.965" fill="#edfefe" d="M 306.5,18.5 C 313.655,17.3448 320.988,17.1782 328.5,18C 332.133,18.1489 335.466,18.9823 338.5,20.5C 327.902,18.9596 317.236,18.293 306.5,18.5 Z"/></g>
<g><path style="opacity:0.997" fill="#e8fefe" d="M 482.5,18.5 C 482.389,19.1174 482.056,19.6174 481.5,20C 478.304,20.8045 475.304,20.6378 472.5,19.5C 475.807,18.9492 479.14,18.6159 482.5,18.5 Z"/></g>
<g><path style="opacity:1" fill="#fbfefe" d="M 165.5,20.5 C 166.167,20.5 166.5,20.8333 166.5,21.5C 169.461,23.8978 169.128,25.5645 165.5,26.5C 161.147,25.6067 157.147,23.9401 153.5,21.5C 157.032,20.1485 160.365,20.4818 163.5,22.5C 164.713,22.2528 165.38,21.5862 165.5,20.5 Z"/></g>
<g><path style="opacity:0.988" fill="#ebfefe" d="M 304.5,18.5 C 304.389,19.1174 304.056,19.6174 303.5,20C 294.298,22.0486 285.298,24.5486 276.5,27.5C 285.146,22.6656 294.479,19.6656 304.5,18.5 Z"/></g>
<g><path style="opacity:0.992" fill="#f1fefd" d="M 515.5,26.5 C 515.265,27.0967 514.765,27.4301 514,27.5C 507.572,24.1292 501.072,23.4626 494.5,25.5C 495.091,24.8485 495.757,24.1818 496.5,23.5C 500.459,22.3401 504.459,22.1735 508.5,23C 510.131,24.8356 510.798,24.3356 510.5,21.5C 513.921,21.2384 514.921,22.5717 513.5,25.5C 513.957,26.2975 514.624,26.6309 515.5,26.5 Z"/></g>
<g><path style="opacity:0.404" fill="#e8fefe" d="M 493.5,24.5 C 489.929,23.9126 486.263,23.9126 482.5,24.5C 484.29,23.0027 486.456,22.336 489,22.5C 490.986,22.5687 492.486,23.2353 493.5,24.5 Z"/></g>
<g><path style="opacity:1" fill="#f0fefe" d="M 165.5,20.5 C 165.38,21.5862 164.713,22.2528 163.5,22.5C 160.365,20.4818 157.032,20.1485 153.5,21.5C 157.147,23.9401 161.147,25.6067 165.5,26.5C 169.128,25.5645 169.461,23.8978 166.5,21.5C 176.311,23.7387 184.978,28.0721 192.5,34.5C 190.801,34.3398 189.134,34.5065 187.5,35C 186.316,36.1455 186.316,37.3121 187.5,38.5C 185.223,37.5514 183.223,36.2181 181.5,34.5C 182.552,34.6495 183.552,34.4828 184.5,34C 183.167,33 183.167,32 184.5,31C 183.5,30.6667 182.5,30.3333 181.5,30C 181.833,29.6667 182.167,29.3333 182.5,29C 181.24,27.887 180.073,27.7203 179,28.5C 177.528,26.5579 175.528,25.5579 173,25.5C 171.338,25.3875 170.171,26.0542 169.5,27.5C 171.135,28.6808 172.802,28.6808 174.5,27.5C 175.974,29.7175 177.64,31.7175 179.5,33.5C 167.84,27.8341 155.506,24.5008 142.5,23.5C 137.668,25.3948 132.668,25.7281 127.5,24.5C 129.957,22.5569 132.957,21.5569 136.5,21.5C 140.459,22.4798 144.292,22.8132 148,22.5C 148.5,22.3333 149,22.1667 149.5,22C 148.663,20.9887 148.33,19.8221 148.5,18.5C 138.656,18.249 128.989,18.9157 119.5,20.5C 119.5,21.5 119.5,22.5 119.5,23.5C 116.545,22.8413 113.545,22.5079 110.5,22.5C 118.019,19.7232 125.852,17.7232 134,16.5C 144.548,16.7825 155.048,18.1158 165.5,20.5 Z"/></g>
<g><path style="opacity:1" fill="#fbfdfe" d="M 181.5,34.5 C 180.508,34.6716 179.842,34.3382 179.5,33.5C 177.64,31.7175 175.974,29.7175 174.5,27.5C 172.802,28.6808 171.135,28.6808 169.5,27.5C 170.171,26.0542 171.338,25.3875 173,25.5C 175.528,25.5579 177.528,26.5579 179,28.5C 180.073,27.7203 181.24,27.887 182.5,29C 182.167,29.3333 181.833,29.6667 181.5,30C 182.5,30.3333 183.5,30.6667 184.5,31C 183.167,32 183.167,33 184.5,34C 183.552,34.4828 182.552,34.6495 181.5,34.5 Z"/></g>
<g><path style="opacity:1" fill="#eefefe" d="M 518.5,20.5 C 525.056,22.1156 531.056,24.7822 536.5,28.5C 534.16,27.914 531.993,26.914 530,25.5C 529.586,25.9574 529.086,26.2907 528.5,26.5C 525.111,24.2942 521.777,22.2942 518.5,20.5 Z"/></g>
<g><path style="opacity:0.702" fill="#eefefe" d="M 351.5,24.5 C 358.958,27.3149 365.625,31.3149 371.5,36.5C 369.323,36.4139 367.323,35.7472 365.5,34.5C 362.229,30.1098 358.063,28.1098 353,28.5C 351.812,27.4366 351.312,26.1033 351.5,24.5 Z"/></g>
<g><path style="opacity:0.988" fill="#f6fefd" d="M 471.5,20.5 C 470.21,21.9348 468.544,22.9348 466.5,23.5C 467.641,24.4255 467.641,25.2588 466.5,26C 470.975,25.0263 475.642,24.5263 480.5,24.5C 472.515,27.0083 464.515,29.8417 456.5,33C 449.273,37.1084 442.606,41.9417 436.5,47.5C 433.227,49.4013 430.894,52.068 429.5,55.5C 429.5,56.1667 429.167,56.5 428.5,56.5C 427.035,55.5943 426.035,54.261 425.5,52.5C 426.63,51.3777 427.297,50.0443 427.5,48.5C 438.86,34.1434 453.526,24.81 471.5,20.5 Z"/></g>
<g><path style="opacity:1" fill="#f0fefd" d="M 516.5,26.5 C 522.767,27.369 528.767,29.0356 534.5,31.5C 535.204,33.1014 536.371,34.4348 538,35.5C 540.096,34.2845 539.929,33.4512 537.5,33C 539.727,32.296 540.06,31.1294 538.5,29.5C 542.392,31.0621 545.725,33.3954 548.5,36.5C 546.897,36.3118 545.563,36.8118 544.5,38C 546.09,39.0458 547.59,40.2125 549,41.5C 551.326,45.3185 553.826,48.9852 556.5,52.5C 545.417,40.2968 532.084,31.6301 516.5,26.5 Z"/></g>
<g><path style="opacity:1" fill="#e8fefe" d="M 359.5,40.5 C 356.426,37.1345 353.092,36.8012 349.5,39.5C 349.5,38.5 349.5,37.5 349.5,36.5C 352.518,36.3354 355.518,36.502 358.5,37C 359.337,38.0113 359.67,39.1779 359.5,40.5 Z"/></g>
<g><path style="opacity:0.996" fill="#fbfefe" d="M 478.5,35.5 C 485.796,37.2395 493.463,38.4061 501.5,39C 504.397,41.0767 507.397,42.91 510.5,44.5C 514.336,47.6783 517.002,51.6783 518.5,56.5C 519.874,60.6281 520.541,64.9614 520.5,69.5C 520.426,72.3744 520.093,75.2077 519.5,78C 519.833,78.5 520.167,79 520.5,79.5C 521.308,77.5767 521.808,75.5767 522,73.5C 522.499,77.8206 522.666,82.1539 522.5,86.5C 521.97,94.1052 519.303,100.772 514.5,106.5C 513.167,106.5 511.833,106.5 510.5,106.5C 510.762,107.978 510.429,109.311 509.5,110.5C 508.109,109.355 506.776,109.355 505.5,110.5C 505.709,111.086 506.043,111.586 506.5,112C 505.196,112.804 504.529,113.971 504.5,115.5C 506.186,117.725 507.186,120.225 507.5,123C 504.86,126.869 505.86,128.035 510.5,126.5C 510.34,128.199 510.506,129.866 511,131.5C 511.881,134.014 513.381,136.014 515.5,137.5C 515.84,140.144 515.173,142.477 513.5,144.5C 514.274,145.711 515.107,145.711 516,144.5C 517.333,146.5 518.667,148.5 520,150.5C 520.72,152.112 520.554,153.612 519.5,155C 520.253,156.487 521.086,156.654 522,155.5C 522.309,156.766 522.809,157.933 523.5,159C 522.376,159.249 521.376,159.749 520.5,160.5C 521.885,161.551 522.885,162.884 523.5,164.5C 524.325,165.386 525.325,165.719 526.5,165.5C 526.5,166.833 526.5,168.167 526.5,169.5C 523.531,170.329 520.531,170.495 517.5,170C 515.405,167.16 513.405,164.327 511.5,161.5C 505.252,147.943 499.085,134.276 493,120.5C 492.5,120 492,119.5 491.5,119C 485.751,118.215 480.084,118.382 474.5,119.5C 473.669,135.328 473.169,151.328 473,167.5C 469.894,170.319 466.394,170.986 462.5,169.5C 462.34,167.801 462.506,166.134 463,164.5C 463.893,165.711 464.726,165.711 465.5,164.5C 465.081,163.328 464.415,162.328 463.5,161.5C 462.178,120.463 462.178,79.4627 463.5,38.5C 468.223,36.7751 473.223,35.7751 478.5,35.5 Z M 504.5,97.5 C 502.359,100.472 499.692,102.972 496.5,105C 489.253,105.812 482.086,105.646 475,104.5C 474.5,88.1701 474.333,71.8367 474.5,55.5C 475.234,54.2921 475.567,52.9587 475.5,51.5C 481.701,51.2127 487.867,50.8793 494,50.5C 501.704,53.53 506.371,59.1967 508,67.5C 510.426,77.9395 509.259,87.9395 504.5,97.5 Z"/></g>
<g><path style="opacity:0.608" fill="#eafefe" d="M 478.5,35.5 C 483.116,36.7818 487.783,36.7818 492.5,35.5C 494.187,35.7605 495.687,36.4272 497,37.5C 502.657,37.2467 507.157,39.5801 510.5,44.5C 507.397,42.91 504.397,41.0767 501.5,39C 493.463,38.4061 485.796,37.2395 478.5,35.5 Z"/></g>
<g><path style="opacity:0.971" fill="#fcfefe" d="M 128.5,70.5 C 130.008,72.1815 131.008,74.1815 131.5,76.5C 131.519,78.0603 131.852,79.5603 132.5,81C 129.966,83.3591 130.633,84.5258 134.5,84.5C 136.749,87.9663 138.082,91.6329 138.5,95.5C 139.354,94.4783 140.354,93.6449 141.5,93C 141.272,92.6012 140.938,92.4346 140.5,92.5C 140.5,91.8333 140.833,91.5 141.5,91.5C 142.885,90.4264 144.051,89.0931 145,87.5C 146.297,88.7836 147.464,88.6169 148.5,87C 147.027,86.2904 146.36,85.1238 146.5,83.5C 147.552,83.6495 148.552,83.4828 149.5,83C 148.55,80.5679 148.55,78.0679 149.5,75.5C 151.133,71.5709 153.133,67.9043 155.5,64.5C 157.752,61.0676 160.252,57.7342 163,54.5C 163.495,52.5273 163.662,50.5273 163.5,48.5C 164.326,45.5152 165.659,42.8485 167.5,40.5C 170.228,38.7119 173.228,38.2119 176.5,39C 177.701,39.9025 178.535,41.0692 179,42.5C 179.5,84.1653 179.667,125.832 179.5,167.5C 176.416,170.081 172.75,171.081 168.5,170.5C 167.862,138.02 167.195,105.687 166.5,73.5C 159.833,86.1667 153.167,98.8333 146.5,111.5C 144.362,111.703 142.695,112.703 141.5,114.5C 140.5,114 139.5,113.5 138.5,113C 139.747,111.506 139.747,110.006 138.5,108.5C 137.614,109.325 137.281,110.325 137.5,111.5C 136.5,111.5 135.5,111.5 134.5,111.5C 128.909,102.79 124.242,93.4563 120.5,83.5C 119.643,81.1375 119.309,78.8042 119.5,76.5C 117.739,74.3202 115.573,72.6536 113,71.5C 112.5,72 112,72.5 111.5,73C 112.496,104.427 112.829,135.927 112.5,167.5C 111.766,168.708 111.433,170.041 111.5,171.5C 107.607,173.239 104.107,172.573 101,169.5C 100.5,166.5 100,163.5 99.5,160.5C 99.6093,124.374 99.6093,88.3738 99.5,52.5C 99.7006,47.5543 101.367,43.0543 104.5,39C 106.289,38.4795 107.956,38.8129 109.5,40C 109.381,41.2812 109.881,42.4479 111,43.5C 111.333,42.5 111.667,41.5 112,40.5C 114.695,43.6107 116.028,47.2773 116,51.5C 117,52.1667 118,52.8333 119,53.5C 119.251,55.433 119.751,57.2663 120.5,59C 120.167,59.3333 119.833,59.6667 119.5,60C 123.088,63.058 126.088,66.558 128.5,70.5 Z"/></g>
<g><path style="opacity:1" fill="#edfefe" d="M 377.5,41.5 C 381.784,44.7524 385.118,48.7524 387.5,53.5C 384.13,51.115 380.963,48.4484 378,45.5C 377.51,44.2068 377.343,42.8734 377.5,41.5 Z"/></g>
<g><path style="opacity:1" fill="#fafefd" d="M 548.5,36.5 C 550.749,37.0798 552.415,38.4131 553.5,40.5C 554.833,44.5 557.5,47.1667 561.5,48.5C 562.338,48.8417 562.672,49.5084 562.5,50.5C 564.1,52.5713 564.6,54.9047 564,57.5C 563.667,57.8333 563.333,58.1667 563,58.5C 562.082,56.6243 560.582,55.6243 558.5,55.5C 557.449,54.7777 556.782,53.7777 556.5,52.5C 553.826,48.9852 551.326,45.3185 549,41.5C 547.59,40.2125 546.09,39.0458 544.5,38C 545.563,36.8118 546.897,36.3118 548.5,36.5 Z"/></g>
<g><path style="opacity:0.91" fill="#e3fefe" d="M 553.5,40.5 C 556.5,42.8333 559.167,45.5 561.5,48.5C 557.5,47.1667 554.833,44.5 553.5,40.5 Z"/></g>
<g><path style="opacity:0.278" fill="#e2fefe" d="M 179.5,167.5 C 179.667,125.832 179.5,84.1653 179,42.5C 178.535,41.0692 177.701,39.9025 176.5,39C 173.228,38.2119 170.228,38.7119 167.5,40.5C 172.044,35.0031 176.21,35.3365 180,41.5C 180.831,83.6687 180.665,125.669 179.5,167.5 Z"/></g>
<g><path style="opacity:1" fill="#effffe" d="M 463.5,38.5 C 462.178,79.4627 462.178,120.463 463.5,161.5C 464.415,162.328 465.081,163.328 465.5,164.5C 464.726,165.711 463.893,165.711 463,164.5C 462.506,166.134 462.34,167.801 462.5,169.5C 461.883,169.389 461.383,169.056 461,168.5C 460.333,125.833 460.333,83.1667 461,40.5C 461.708,39.6195 462.542,38.9528 463.5,38.5 Z"/></g>
<g><path style="opacity:0.999" fill="#eefefe" d="M 128.5,70.5 C 126.088,66.558 123.088,63.058 119.5,60C 119.833,59.6667 120.167,59.3333 120.5,59C 119.751,57.2663 119.251,55.433 119,53.5C 118,52.8333 117,52.1667 116,51.5C 116.028,47.2773 114.695,43.6107 112,40.5C 111.667,41.5 111.333,42.5 111,43.5C 109.881,42.4479 109.381,41.2812 109.5,40C 107.956,38.8129 106.289,38.4795 104.5,39C 101.367,43.0543 99.7006,47.5543 99.5,52.5C 99.2338,48.3951 99.7338,44.3951 101,40.5C 104.119,36.3486 107.952,35.5153 112.5,38C 118.229,48.6241 123.562,59.4575 128.5,70.5 Z"/></g>
<g><path style="opacity:0.998" fill="#f1fefe" d="M 359.5,44.5 C 360.273,49.0097 360.94,53.6763 361.5,58.5C 361.547,60.0004 360.881,61.0004 359.5,61.5C 358.673,65.4592 358.173,69.4592 358,73.5C 357.667,74.1667 357.333,74.8333 357,75.5C 356.601,75.2716 356.435,74.9382 356.5,74.5C 357.619,64.5264 358.619,54.5264 359.5,44.5 Z"/></g>
<g><path style="opacity:0.902" fill="#e8fefe" d="M 436.5,47.5 C 434.883,50.7843 432.55,53.4509 429.5,55.5C 430.894,52.068 433.227,49.4013 436.5,47.5 Z"/></g>
<g><path style="opacity:1" fill="#edfefe" d="M 562.5,50.5 C 571.072,60.6472 576.739,72.3139 579.5,85.5C 577.224,85.2435 576.057,83.9102 576,81.5C 574.585,84.9582 574.085,88.6249 574.5,92.5C 572.85,85.4953 570.85,78.4953 568.5,71.5C 565.193,66.2357 561.86,60.9023 558.5,55.5C 560.582,55.6243 562.082,56.6243 563,58.5C 563.333,58.1667 563.667,57.8333 564,57.5C 564.6,54.9047 564.1,52.5713 562.5,50.5 Z"/></g>
<g><path style="opacity:1" fill="#ecfefe" d="M 163.5,48.5 C 163.662,50.5273 163.495,52.5273 163,54.5C 160.252,57.7342 157.752,61.0676 155.5,64.5C 157.659,58.8489 160.326,53.5156 163.5,48.5 Z"/></g>
<g><path style="opacity:0.947" fill="#ecfefe" d="M 286.5,41.5 C 287.117,41.6107 287.617,41.944 288,42.5C 288.089,46.0284 288.756,49.3618 290,52.5C 293.072,80.2621 296.072,107.262 299,133.5C 299.232,132.263 299.732,131.263 300.5,130.5C 300.628,132.655 300.128,134.655 299,136.5C 294.075,105.024 289.908,73.3574 286.5,41.5 Z"/></g>
<g><path style="opacity:0.996" fill="#effefe" d="M 518.5,56.5 C 520.865,60.4239 522.365,64.7573 523,69.5C 523.818,75.3487 523.652,81.0154 522.5,86.5C 522.666,82.1539 522.499,77.8206 522,73.5C 521.808,75.5767 521.308,77.5767 520.5,79.5C 520.167,79 519.833,78.5 519.5,78C 520.093,75.2077 520.426,72.3744 520.5,69.5C 520.541,64.9614 519.874,60.6281 518.5,56.5 Z"/></g>
<g><path style="opacity:1" fill="#effefd" d="M 390.5,57.5 C 393.927,62.0157 396.593,67.0157 398.5,72.5C 397.5,72.5 396.5,72.5 395.5,72.5C 395.127,69.4261 394.461,66.4261 393.5,63.5C 391.712,63.7852 390.045,63.4519 388.5,62.5C 390.005,61.1585 390.672,59.4918 390.5,57.5 Z"/></g>
<g><path style="opacity:1" fill="#fcfdfd" d="M 568.5,71.5 C 568.657,70.1266 568.49,68.7932 568,67.5C 564.611,64.9597 563.945,61.9597 566,58.5C 567.855,60.3604 569.355,62.5271 570.5,65C 570.355,65.772 570.022,66.4387 569.5,67C 571.004,68.4907 571.837,70.324 572,72.5C 575.471,74.1087 576.804,76.7754 576,80.5C 574.605,79.1854 573.605,79.5188 573,81.5C 572.092,77.8068 570.592,74.4734 568.5,71.5 Z"/></g>
<g><path style="opacity:0.986" fill="#effefe" d="M 131.5,76.5 C 134.5,81.8333 137.5,87.1667 140.5,92.5C 140.938,92.4346 141.272,92.6012 141.5,93C 140.354,93.6449 139.354,94.4783 138.5,95.5C 138.082,91.6329 136.749,87.9663 134.5,84.5C 130.633,84.5258 129.966,83.3591 132.5,81C 131.852,79.5603 131.519,78.0603 131.5,76.5 Z"/></g>
<g><path style="opacity:1" fill="#eefefe" d="M 149.5,75.5 C 148.55,78.0679 148.55,80.5679 149.5,83C 148.552,83.4828 147.552,83.6495 146.5,83.5C 146.36,85.1238 147.027,86.2904 148.5,87C 147.464,88.6169 146.297,88.7836 145,87.5C 144.051,89.0931 142.885,90.4264 141.5,91.5C 143.659,85.8489 146.326,80.5156 149.5,75.5 Z"/></g>
<g><path style="opacity:1" fill="#ecfefe" d="M 355.5,76.5 C 356.651,81.6503 356.817,86.9836 356,92.5C 355.243,94.3146 354.41,95.9812 353.5,97.5C 354.167,90.5 354.833,83.5 355.5,76.5 Z"/></g>
<g><path style="opacity:0.996" fill="#effefe" d="M 427.5,48.5 C 427.297,50.0443 426.63,51.3777 425.5,52.5C 426.035,54.261 427.035,55.5943 428.5,56.5C 418.782,71.8604 413.782,88.6937 413.5,107C 413.658,111.192 413.991,115.359 414.5,119.5C 413.005,119.585 412.005,118.919 411.5,117.5C 412.112,115.057 412.445,112.557 412.5,110C 412.693,106.757 412.027,103.757 410.5,101C 411.218,99.0126 412.218,97.1792 413.5,95.5C 412.391,93.6147 411.557,91.6147 411,89.5C 409.323,91.5252 408.323,93.8585 408,96.5C 407.501,101.823 407.334,107.156 407.5,112.5C 406.676,108.688 406.176,104.688 406,100.5C 405.667,100.833 405.333,101.167 405,101.5C 404.617,108.86 403.95,116.193 403,123.5C 402.61,126.104 401.776,128.438 400.5,130.5C 402.057,120.283 402.891,109.95 403,99.5C 403.708,98.6195 404.542,97.9528 405.5,97.5C 406.222,97.0825 406.722,96.4158 407,95.5C 407.83,90.857 408.497,86.1903 409,81.5C 410.759,77.3557 412.592,73.3557 414.5,69.5C 416.551,61.0602 420.884,54.0602 427.5,48.5 Z"/></g>
<g><path style="opacity:1" fill="#fcfdfd" d="M 414.5,69.5 C 415.458,69.0472 416.292,68.3805 417,67.5C 417.303,65.1116 418.137,62.9449 419.5,61C 421.074,60.3013 422.407,60.6346 423.5,62C 420.737,65.8003 419.071,69.967 418.5,74.5C 417.448,74.3505 416.448,74.5172 415.5,75C 417.124,78.2056 416.458,80.8723 413.5,83C 414.946,85.4932 414.279,87.3265 411.5,88.5C 410.353,86.2351 410.186,83.9018 411,81.5C 412.79,77.6732 413.956,73.6732 414.5,69.5 Z"/></g>
<g><path style="opacity:1" fill="#f8fefd" d="M 54.5,120.5 C 52.3423,111.658 52.009,102.658 53.5,93.5C 54.8333,92.0665 56.3333,90.7332 58,89.5C 58.6667,99.1667 58.6667,108.833 58,118.5C 57.2904,119.973 56.1238,120.64 54.5,120.5 Z"/></g>
<g><path style="opacity:0.588" fill="#e8fefe" d="M 474.5,55.5 C 474.333,71.8367 474.5,88.1701 475,104.5C 482.086,105.646 489.253,105.812 496.5,105C 499.692,102.972 502.359,100.472 504.5,97.5C 503.515,101.33 501.181,104.163 497.5,106C 489.254,106.815 481.088,106.648 473,105.5C 473.095,88.6931 473.595,72.0265 474.5,55.5 Z"/></g>
<g><path style="opacity:0.431" fill="#e1fffe" d="M 166.5,73.5 C 167.195,105.687 167.862,138.02 168.5,170.5C 167.778,170.082 167.278,169.416 167,168.5C 166.5,136.835 166.333,105.168 166.5,73.5 Z"/></g>
<g><path style="opacity:0.981" fill="#fbfdfe" d="M 414.5,119.5 C 414.833,120.167 415.167,120.833 415.5,121.5C 414.732,122.263 414.232,123.263 414,124.5C 413,123.167 412,123.167 411,124.5C 409.409,120.886 408.242,117.22 407.5,113.5C 407.5,113.167 407.5,112.833 407.5,112.5C 407.334,107.156 407.501,101.823 408,96.5C 408.323,93.8585 409.323,91.5252 411,89.5C 411.557,91.6147 412.391,93.6147 413.5,95.5C 412.218,97.1792 411.218,99.0126 410.5,101C 412.027,103.757 412.693,106.757 412.5,110C 412.445,112.557 412.112,115.057 411.5,117.5C 412.005,118.919 413.005,119.585 414.5,119.5 Z"/></g>
<g><path style="opacity:0.62" fill="#ebfefe" d="M 579.5,86.5 C 583.445,100.242 583.112,113.908 578.5,127.5C 580.714,113.896 581.048,100.229 579.5,86.5 Z"/></g>
<g><path style="opacity:1" fill="#f0fefe" d="M 318.5,95.5 C 321.56,94.7746 323.893,96.108 325.5,99.5C 326.325,100.386 327.325,100.719 328.5,100.5C 328.375,106.203 328.708,111.87 329.5,117.5C 326.772,111.021 324.272,104.355 322,97.5C 321.184,96.1772 320.017,95.5106 318.5,95.5 Z"/></g>
<g><path style="opacity:1" fill="#f8fdfd" d="M 579.5,85.5 C 579.5,85.8333 579.5,86.1667 579.5,86.5C 581.048,100.229 580.714,113.896 578.5,127.5C 578.737,128.791 578.404,129.791 577.5,130.5C 575.647,131.124 573.98,130.457 572.5,128.5C 573.754,126.357 573.754,124.357 572.5,122.5C 573.148,120.914 573.648,119.247 574,117.5C 574.5,109.173 574.666,100.84 574.5,92.5C 574.085,88.6249 574.585,84.9582 576,81.5C 576.057,83.9102 577.224,85.2435 579.5,85.5 Z"/></g>
<g><path style="opacity:0.992" fill="#f4fefe" d="M 120.5,83.5 C 117.919,80.6797 116.086,77.3464 115,73.5C 114.536,74.0944 114.369,74.7611 114.5,75.5C 113.833,106.167 113.167,136.833 112.5,167.5C 112.829,135.927 112.496,104.427 111.5,73C 112,72.5 112.5,72 113,71.5C 115.573,72.6536 117.739,74.3202 119.5,76.5C 119.309,78.8042 119.643,81.1375 120.5,83.5 Z"/></g>
<g><path style="opacity:0.992" fill="#f1fefe" d="M 514.5,106.5 C 512.592,110.08 509.926,113.08 506.5,115.5C 509.897,122.696 512.897,130.03 515.5,137.5C 513.381,136.014 511.881,134.014 511,131.5C 510.506,129.866 510.34,128.199 510.5,126.5C 505.86,128.035 504.86,126.869 507.5,123C 507.186,120.225 506.186,117.725 504.5,115.5C 504.529,113.971 505.196,112.804 506.5,112C 506.043,111.586 505.709,111.086 505.5,110.5C 506.776,109.355 508.109,109.355 509.5,110.5C 510.429,109.311 510.762,107.978 510.5,106.5C 511.833,106.5 513.167,106.5 514.5,106.5 Z"/></g>
<g><path style="opacity:0.2" fill="#e1fffe" d="M 114.5,75.5 C 114.667,106.502 114.5,137.502 114,168.5C 113.623,169.942 112.79,170.942 111.5,171.5C 111.433,170.041 111.766,168.708 112.5,167.5C 113.167,136.833 113.833,106.167 114.5,75.5 Z"/></g>
<g><path style="opacity:0.516" fill="#ecfefe" d="M 146.5,111.5 C 142.307,118.037 138.307,118.037 134.5,111.5C 135.5,111.5 136.5,111.5 137.5,111.5C 137.281,110.325 137.614,109.325 138.5,108.5C 139.747,110.006 139.747,111.506 138.5,113C 139.5,113.5 140.5,114 141.5,114.5C 142.695,112.703 144.362,111.703 146.5,111.5 Z"/></g>
<g><path style="opacity:0.588" fill="#e4fefe" d="M 474.5,119.5 C 474.667,136.17 474.5,152.837 474,169.5C 471.039,172.616 467.539,173.283 463.5,171.5C 462.702,171.043 462.369,170.376 462.5,169.5C 466.394,170.986 469.894,170.319 473,167.5C 473.169,151.328 473.669,135.328 474.5,119.5 Z"/></g>
<g><path style="opacity:1" fill="#f3fefd" d="M 407.5,113.5 C 408.242,117.22 409.409,120.886 411,124.5C 412,123.167 413,123.167 414,124.5C 414.232,123.263 414.732,122.263 415.5,121.5C 421.29,146.45 435.29,165.117 457.5,177.5C 456.178,177.33 455.011,177.663 454,178.5C 451.721,174.917 448.554,173.084 444.5,173C 443.833,173.333 443.167,173.667 442.5,174C 444.892,175.409 447.226,176.909 449.5,178.5C 451.214,177.391 451.881,178.058 451.5,180.5C 453.179,180.285 454.179,180.952 454.5,182.5C 426.639,167.946 410.972,144.946 407.5,113.5 Z"/></g>
<g><path style="opacity:1" fill="#eefefd" d="M 572.5,122.5 C 573.754,124.357 573.754,126.357 572.5,128.5C 573.98,130.457 575.647,131.124 577.5,130.5C 576.796,135.29 575.129,139.623 572.5,143.5C 572.396,140.91 573.063,138.577 574.5,136.5C 574.281,134.085 572.948,133.085 570.5,133.5C 570.482,136.921 569.149,139.588 566.5,141.5C 569.302,135.427 571.302,129.093 572.5,122.5 Z"/></g>
<g><path style="opacity:0.655" fill="#e8fefe" d="M 338.5,118.5 C 337.891,123.812 337.391,129.146 337,134.5C 336.667,134.833 336.333,135.167 336,135.5C 334.117,134.347 333.284,132.681 333.5,130.5C 334.151,131.091 334.818,131.757 335.5,132.5C 335.872,127.429 336.872,122.762 338.5,118.5 Z"/></g>
<g><path style="opacity:1" fill="#f6fefd" d="M 192.5,34.5 C 226.434,62.5991 235.934,97.5991 221,139.5C 208.801,166.515 188.301,183.515 159.5,190.5C 160.589,188.883 162.256,188.05 164.5,188C 162.238,184.856 159.738,184.689 157,187.5C 156.617,186.944 156.117,186.611 155.5,186.5C 162.087,183.96 168.754,182.294 175.5,181.5C 175.5,180.5 175.5,179.5 175.5,178.5C 176.552,178.649 177.552,178.483 178.5,178C 180.319,177.26 181.652,176.093 182.5,174.5C 214.672,151.803 226.505,121.136 218,82.5C 212.639,64.3375 202.472,49.6709 187.5,38.5C 186.316,37.3121 186.316,36.1455 187.5,35C 189.134,34.5065 190.801,34.3398 192.5,34.5 Z"/></g>
<g><path style="opacity:0.998" fill="#f0fefe" d="M 515.5,137.5 C 519.601,145.604 523.435,153.938 527,162.5C 527.796,165.039 527.629,167.372 526.5,169.5C 526.5,168.167 526.5,166.833 526.5,165.5C 525.325,165.719 524.325,165.386 523.5,164.5C 522.885,162.884 521.885,161.551 520.5,160.5C 521.376,159.749 522.376,159.249 523.5,159C 522.809,157.933 522.309,156.766 522,155.5C 521.086,156.654 520.253,156.487 519.5,155C 520.554,153.612 520.72,152.112 520,150.5C 518.667,148.5 517.333,146.5 516,144.5C 515.107,145.711 514.274,145.711 513.5,144.5C 515.173,142.477 515.84,140.144 515.5,137.5 Z"/></g>
<g><path style="opacity:0.999" fill="#f1fefe" d="M 329.5,157.5 C 327.164,153.482 325.331,149.149 324,144.5C 323.566,148.223 322.732,148.39 321.5,145C 321.905,144.055 322.572,143.388 323.5,143C 322.897,141.175 322.23,139.341 321.5,137.5C 320.325,138.855 319.325,138.688 318.5,137C 319.43,135.806 320.097,134.473 320.5,133C 319.258,130.528 318.092,128.028 317,125.5C 316.607,128.633 315.774,131.633 314.5,134.5C 315.869,136.701 315.702,138.701 314,140.5C 313.667,139.167 313.333,137.833 313,136.5C 312.257,138.441 312.424,140.274 313.5,142C 312.328,142.419 311.328,143.085 310.5,144C 313.121,146.072 313.788,148.572 312.5,151.5C 311.281,150.737 310.281,149.737 309.5,148.5C 308.943,150.332 307.943,151.665 306.5,152.5C 309.696,142.079 313.196,131.745 317,121.5C 322.052,133.153 326.218,145.153 329.5,157.5 Z"/></g>
<g><path style="opacity:1" fill="#f9fdfd" d="M 572.5,143.5 C 571.258,147.655 569.258,151.322 566.5,154.5C 565.687,153.347 564.687,153.347 563.5,154.5C 561.734,158.933 558.734,161.933 554.5,163.5C 556.888,158.418 560.055,153.751 564,149.5C 564.49,148.207 564.657,146.873 564.5,145.5C 564.66,143.847 565.326,142.514 566.5,141.5C 569.149,139.588 570.482,136.921 570.5,133.5C 572.948,133.085 574.281,134.085 574.5,136.5C 573.063,138.577 572.396,140.91 572.5,143.5 Z"/></g>
<g><path style="opacity:1" fill="#f6fefd" d="M 110.5,22.5 C 109.194,25.2466 110.194,26.9133 113.5,27.5C 117.398,25.2375 121.732,24.2375 126.5,24.5C 96.7304,31.4225 75.897,49.0892 64,77.5C 52.7009,118.615 64.5342,151.115 99.5,175C 107.272,179.064 115.272,182.231 123.5,184.5C 120.813,184.336 118.146,184.503 115.5,185C 117.501,187.325 119.834,189.158 122.5,190.5C 92.5189,184.026 71.3522,166.693 59,138.5C 56.5703,132.715 55.0703,126.715 54.5,120.5C 56.1238,120.64 57.2904,119.973 58,118.5C 58.6667,108.833 58.6667,99.1667 58,89.5C 56.3333,90.7332 54.8333,92.0665 53.5,93.5C 58.8754,58.8009 77.8754,35.1343 110.5,22.5 Z"/></g>
<g><path style="opacity:0.997" fill="#f0fefe" d="M 347.5,141.5 C 348.323,144.977 348.823,148.644 349,152.5C 349.5,153 350,153.5 350.5,154C 350.319,156.956 348.986,159.623 346.5,162C 346.453,164.369 346.453,166.869 346.5,169.5C 345.423,170.705 344.09,171.372 342.5,171.5C 345.598,161.799 347.265,151.799 347.5,141.5 Z"/></g>
<g><path style="opacity:0.998" fill="#f0fefe" d="M 238.5,142.5 C 240.288,145.117 242.622,147.284 245.5,149C 245.043,149.414 244.709,149.914 244.5,150.5C 245.062,153.773 246.729,154.773 249.5,153.5C 250.526,158.355 252.526,162.688 255.5,166.5C 248.286,159.616 242.62,151.616 238.5,142.5 Z"/></g>
<g><path style="opacity:0.997" fill="#f2fefe" d="M 564.5,145.5 C 564.657,146.873 564.49,148.207 564,149.5C 560.055,153.751 556.888,158.418 554.5,163.5C 558.734,161.933 561.734,158.933 563.5,154.5C 564.687,153.347 565.687,153.347 566.5,154.5C 559.403,165.598 550.07,174.265 538.5,180.5C 538.062,180.565 537.728,180.399 537.5,180C 538.851,178.383 540.518,177.216 542.5,176.5C 542,175.119 541,174.453 539.5,174.5C 537.87,175.421 536.203,176.255 534.5,177C 535.345,178.558 534.679,179.558 532.5,180C 527.907,181.251 523.241,182.085 518.5,182.5C 538.008,175.323 553.341,162.989 564.5,145.5 Z"/></g>
<g><path style="opacity:1" fill="#e6fffe" d="M 179.5,167.5 C 178.207,172.078 175.207,173.578 170.5,172C 169.584,171.722 168.918,171.222 168.5,170.5C 172.75,171.081 176.416,170.081 179.5,167.5 Z"/></g>
<g><path style="opacity:0.896" fill="#eafefe" d="M 511.5,161.5 C 513.405,164.327 515.405,167.16 517.5,170C 520.531,170.495 523.531,170.329 526.5,169.5C 526.047,170.458 525.381,171.292 524.5,172C 521.833,172.667 519.167,172.667 516.5,172C 513.891,168.949 512.225,165.449 511.5,161.5 Z"/></g>
<g><path style="opacity:0.724" fill="#eafefe" d="M 262.5,172.5 C 268.345,175.921 274.012,179.587 279.5,183.5C 272.973,181.076 267.307,177.409 262.5,172.5 Z"/></g>
<g><path style="opacity:0.999" fill="#ecfefe" d="M 182.5,174.5 C 181.652,176.093 180.319,177.26 178.5,178C 177.552,178.483 176.552,178.649 175.5,178.5C 175.5,179.5 175.5,180.5 175.5,181.5C 168.754,182.294 162.087,183.96 155.5,186.5C 145.828,186.666 136.161,186.5 126.5,186C 125.263,185.768 124.263,185.268 123.5,184.5C 144.376,187.856 164.043,184.523 182.5,174.5 Z"/></g>
<g><path style="opacity:0.983" fill="#f7fefd" d="M 457.5,177.5 C 464.117,180.26 470.784,182.593 477.5,184.5C 477.611,185.117 477.944,185.617 478.5,186C 487.676,186.824 496.676,186.657 505.5,185.5C 509.632,184.137 513.965,183.137 518.5,182.5C 523.241,182.085 527.907,181.251 532.5,180C 534.679,179.558 535.345,178.558 534.5,177C 536.203,176.255 537.87,175.421 539.5,174.5C 541,174.453 542,175.119 542.5,176.5C 540.518,177.216 538.851,178.383 537.5,180C 537.728,180.399 538.062,180.565 538.5,180.5C 513.496,194.351 487.496,196.185 460.5,186C 458.273,185.059 456.273,183.892 454.5,182.5C 454.179,180.952 453.179,180.285 451.5,180.5C 451.881,178.058 451.214,177.391 449.5,178.5C 447.226,176.909 444.892,175.409 442.5,174C 443.167,173.667 443.833,173.333 444.5,173C 448.554,173.084 451.721,174.917 454,178.5C 455.011,177.663 456.178,177.33 457.5,177.5 Z"/></g>
<g><path style="opacity:0.984" fill="#fcfefd" d="M 123.5,184.5 C 124.263,185.268 125.263,185.768 126.5,186C 136.161,186.5 145.828,186.666 155.5,186.5C 156.117,186.611 156.617,186.944 157,187.5C 159.738,184.689 162.238,184.856 164.5,188C 162.256,188.05 160.589,188.883 159.5,190.5C 158.609,191.11 157.609,191.443 156.5,191.5C 145.833,190.167 135.167,190.167 124.5,191.5C 123.508,191.672 122.842,191.338 122.5,190.5C 119.834,189.158 117.501,187.325 115.5,185C 118.146,184.503 120.813,184.336 123.5,184.5 Z"/></g>
<g><path style="opacity:0.971" fill="#e8fffe" d="M 477.5,184.5 C 486.805,185.354 496.139,185.687 505.5,185.5C 496.676,186.657 487.676,186.824 478.5,186C 477.944,185.617 477.611,185.117 477.5,184.5 Z"/></g>
<g><path style="opacity:0.988" fill="#eafefe" d="M 279.5,183.5 C 281.807,183.986 283.973,183.986 286,183.5C 288.974,185.425 291.807,187.425 294.5,189.5C 289.105,188.262 284.105,186.262 279.5,183.5 Z"/></g>
<g><path style="opacity:0.986" fill="#effffe" d="M 124.5,191.5 C 135.167,190.167 145.833,190.167 156.5,191.5C 145.833,192.833 135.167,192.833 124.5,191.5 Z"/></g>
<g><path style="opacity:0.989" fill="#eefefe" d="M 325.5,192.5 C 319.491,192.666 313.491,192.499 307.5,192C 303.57,191.758 299.903,190.925 296.5,189.5C 298.677,189.414 300.677,188.747 302.5,187.5C 303.711,188.274 303.711,189.107 302.5,190C 310.383,190.197 318.05,191.031 325.5,192.5 Z"/></g>
<g><path style="opacity:0.564" fill="#f9fdfe" d="M 361.5,205.5 C 362.952,206.302 364.618,206.802 366.5,207C 365.944,207.383 365.611,207.883 365.5,208.5C 365.699,211.011 366.032,213.178 366.5,215C 368.81,215.497 371.143,215.663 373.5,215.5C 373.778,217.346 373.111,218.68 371.5,219.5C 365.012,216.996 363.346,218.996 366.5,225.5C 368.631,226.314 370.964,226.814 373.5,227C 367.418,227.788 361.418,227.621 355.5,226.5C 355.672,225.508 355.338,224.842 354.5,224.5C 354.5,224.167 354.5,223.833 354.5,223.5C 355.833,222.833 355.833,222.167 354.5,221.5C 353.167,221.5 351.833,221.5 350.5,221.5C 351.714,218.871 351.714,216.204 350.5,213.5C 351.341,212.074 352.341,210.74 353.5,209.5C 354.391,208.739 355.058,207.739 355.5,206.5C 357.606,205.919 359.606,205.586 361.5,205.5 Z"/></g>
<g><path style="opacity:0.226" fill="#e9fefe" d="M 394.5,206.5 C 403.991,205.342 413.658,205.175 423.5,206C 424.056,206.383 424.389,206.883 424.5,207.5C 423.883,207.611 423.383,207.944 423,208.5C 420.992,205.861 419.159,205.861 417.5,208.5C 411.5,208.5 405.5,208.5 399.5,208.5C 398.448,206.744 396.781,206.077 394.5,206.5 Z"/></g>
<g><path style="opacity:0.584" fill="#f7fdfe" d="M 380.5,205.5 C 384.876,205.114 389.043,205.781 393,207.5C 393.383,206.944 393.883,206.611 394.5,206.5C 396.781,206.077 398.448,206.744 399.5,208.5C 399.67,209.822 399.337,210.989 398.5,212C 404.175,212.464 404.508,213.131 399.5,214C 400.416,214.374 401.25,214.874 402,215.5C 403.707,214.862 405.54,214.862 407.5,215.5C 407.55,217.59 406.55,218.923 404.5,219.5C 402.338,219.154 400.338,219.154 398.5,219.5C 397.685,218.163 396.518,217.163 395,216.5C 394.601,216.728 394.435,217.062 394.5,217.5C 392.938,217.733 391.605,218.4 390.5,219.5C 389.778,220.551 388.778,221.218 387.5,221.5C 386.18,220.058 384.514,219.392 382.5,219.5C 381.835,221.698 381.168,224.031 380.5,226.5C 379.167,222.5 379.167,218.5 380.5,214.5C 381.183,214.137 381.85,213.804 382.5,213.5C 383.156,214.278 383.989,214.944 385,215.5C 386.814,214.599 388.648,213.599 390.5,212.5C 388.657,209.578 385.99,208.245 382.5,208.5C 382.5,209.5 382.5,210.5 382.5,211.5C 381.5,211.5 380.5,211.5 379.5,211.5C 379.325,209.379 379.659,207.379 380.5,205.5 Z"/></g>
<g><path style="opacity:0.703" fill="#f8fdfd" d="M 424.5,207.5 C 424.833,207.5 425.167,207.5 425.5,207.5C 425.918,208.222 426.584,208.722 427.5,209C 426.209,210.292 426.209,211.458 427.5,212.5C 426.167,216.167 426.167,219.833 427.5,223.5C 427.473,225.199 426.806,226.533 425.5,227.5C 425.167,227.5 424.833,227.5 424.5,227.5C 423.833,227.5 423.5,227.167 423.5,226.5C 424.833,226.167 424.833,225.833 423.5,225.5C 422.336,222.186 421.17,218.852 420,215.5C 419.617,216.056 419.117,216.389 418.5,216.5C 417.448,216.649 416.448,216.483 415.5,216C 417.155,214.556 417.822,212.722 417.5,210.5C 418.506,209.604 418.506,208.938 417.5,208.5C 419.159,205.861 420.992,205.861 423,208.5C 423.383,207.944 423.883,207.611 424.5,207.5 Z"/></g>
<g><path style="opacity:0.613" fill="#f5fdfe" d="M 243.5,217.5 C 243.402,219.553 244.069,221.22 245.5,222.5C 246.071,223.973 246.071,225.64 245.5,227.5C 244.5,227.5 243.5,227.5 242.5,227.5C 241.076,223.147 238.076,221.647 233.5,223C 232.915,224.302 232.249,225.469 231.5,226.5C 227.266,226.938 225.599,225.272 226.5,221.5C 227.183,221.863 227.85,222.196 228.5,222.5C 230.899,217.17 233.232,211.67 235.5,206C 236.784,205.316 237.951,205.483 239,206.5C 240.428,210.307 241.928,213.974 243.5,217.5 Z"/></g>
<g><path style="opacity:1" fill="#f5fcfe" d="M 251.5,212.5 C 251.715,214.179 251.048,215.179 249.5,215.5C 249.672,214.508 249.338,213.842 248.5,213.5C 247.036,212.595 245.702,212.595 244.5,213.5C 244.337,211.143 244.503,208.81 245,206.5C 246.667,205.167 248.333,205.167 250,206.5C 250.505,208.518 251.005,210.518 251.5,212.5 Z"/></g>
<g><path style="opacity:0.994" fill="#eefefe" d="M 260.5,206.5 C 261.5,206.5 262.5,206.5 263.5,206.5C 264.128,213.913 263.461,220.913 261.5,227.5C 260.527,225.052 260.194,222.385 260.5,219.5C 261.586,219.38 262.253,218.713 262.5,217.5C 261.167,214.833 261.167,212.167 262.5,209.5C 262.333,208.833 262.167,208.167 262,207.5C 261.34,209.324 260.173,210.657 258.5,211.5C 258.796,209.597 259.463,207.93 260.5,206.5 Z"/></g>
<g><path style="opacity:0.984" fill="#e7fefe" d="M 361.5,205.5 C 365.884,205.174 370.217,205.508 374.5,206.5C 374.709,207.086 375.043,207.586 375.5,208C 372.183,208.498 368.85,208.665 365.5,208.5C 365.611,207.883 365.944,207.383 366.5,207C 364.618,206.802 362.952,206.302 361.5,205.5 Z"/></g>
<g><path style="opacity:0.996" fill="#edfefe" d="M 427.5,212.5 C 426.209,211.458 426.209,210.292 427.5,209C 426.584,208.722 425.918,208.222 425.5,207.5C 429.668,204.88 433.835,204.88 438,207.5C 438.781,208.944 438.614,210.277 437.5,211.5C 435.571,210.62 433.737,209.62 432,208.5C 429.479,208.822 427.979,210.156 427.5,212.5 Z"/></g>
<g><path style="opacity:0.008" fill="#e5fffe" d="M 241.5,207.5 C 242.525,207.897 242.692,208.563 242,209.5C 241.536,208.906 241.369,208.239 241.5,207.5 Z"/></g>
<g><path style="opacity:0.992" fill="#eefefe" d="M 266.5,205.5 C 272.65,205.779 278.65,205.779 284.5,205.5C 292.689,205.356 297.022,209.356 297.5,217.5C 297.415,222.178 295.415,225.678 291.5,228C 283.173,228.5 274.84,228.666 266.5,228.5C 266.5,220.833 266.5,213.167 266.5,205.5 Z M 284.5,208.5 C 290.724,208.559 293.724,211.725 293.5,218C 292.727,223.28 289.727,225.78 284.5,225.5C 284.5,219.833 284.5,214.167 284.5,208.5 Z M 270.5,208.5 C 273.833,208.5 277.167,208.5 280.5,208.5C 280.5,214.167 280.5,219.833 280.5,225.5C 276.894,225.789 273.394,225.456 270,224.5C 268.667,218.833 270.667,217.167 276,219.5C 277.706,218.692 278.539,217.359 278.5,215.5C 275.833,215.5 273.167,215.5 270.5,215.5C 269.167,213.167 269.167,210.833 270.5,208.5 Z"/></g>
<g><path style="opacity:0.697" fill="#f7fdfe" d="M 224.5,213.5 C 225.151,212.909 225.818,212.243 226.5,211.5C 227.663,213.55 227.496,215.55 226,217.5C 223.936,216.409 221.769,216.242 219.5,217C 217.563,217.122 216.23,217.955 215.5,219.5C 215.5,220.5 215.5,221.5 215.5,222.5C 215.785,224.288 215.452,225.955 214.5,227.5C 213.817,227.137 213.15,226.804 212.5,226.5C 212.335,223.303 212.169,219.97 212,216.5C 211.809,218.708 211.309,220.708 210.5,222.5C 209.849,223.091 209.182,223.757 208.5,224.5C 207.818,223.757 207.151,223.091 206.5,222.5C 206.5,221.833 206.833,221.5 207.5,221.5C 208.314,219.369 208.814,217.036 209,214.5C 209.995,213.934 210.828,213.267 211.5,212.5C 212.417,210.338 212.417,208.005 211.5,205.5C 212.978,205.238 214.311,205.571 215.5,206.5C 216.407,209.421 216.74,212.421 216.5,215.5C 219.698,216.036 222.365,215.369 224.5,213.5 Z"/></g>
<g><path style="opacity:0.573" fill="#f7fefe" d="M 458.5,209.5 C 459.268,208.737 459.768,207.737 460,206.5C 460.333,206.833 460.667,207.167 461,207.5C 461.667,213.833 461.667,220.167 461,226.5C 460.148,225.429 459.315,224.429 458.5,223.5C 458.062,222.494 457.396,222.494 456.5,223.5C 455.185,224.476 453.852,225.476 452.5,226.5C 451.893,226.376 451.56,226.043 451.5,225.5C 452.293,219.247 452.793,212.914 453,206.5C 454.011,205.663 455.178,205.33 456.5,205.5C 456.372,207.655 456.872,209.655 458,211.5C 458.464,210.906 458.631,210.239 458.5,209.5 Z"/></g>
<g><path style="opacity:0.411" fill="#fcfcfd" d="M 260.5,219.5 C 259.833,219.5 259.167,219.5 258.5,219.5C 258.5,217.167 258.5,214.833 258.5,212.5C 258.5,212.167 258.5,211.833 258.5,211.5C 260.173,210.657 261.34,209.324 262,207.5C 262.167,208.167 262.333,208.833 262.5,209.5C 261.167,212.167 261.167,214.833 262.5,217.5C 262.253,218.713 261.586,219.38 260.5,219.5 Z"/></g>
<g><path style="opacity:0.663" fill="#defffe" d="M 176.5,206.5 C 175.5,206.5 174.5,206.5 173.5,206.5C 173.334,213.508 173.5,220.508 174,227.5C 174.383,226.944 174.883,226.611 175.5,226.5C 175.179,228.048 174.179,228.715 172.5,228.5C 172.5,220.833 172.5,213.167 172.5,205.5C 174.099,205.232 175.432,205.566 176.5,206.5 Z"/></g>
<g><path style="opacity:0.841" fill="#f1fefe" d="M 322.5,220.5 C 323.117,220.389 323.617,220.056 324,219.5C 324.802,215.021 326.135,210.687 328,206.5C 330.022,205.009 331.688,205.342 333,207.5C 334.867,212.102 336.534,216.768 338,221.5C 338.499,216.177 338.666,210.844 338.5,205.5C 344.189,204.836 349.189,206.17 353.5,209.5C 352.341,210.74 351.341,212.074 350.5,213.5C 350.586,212.504 350.252,211.671 349.5,211C 347.541,210.069 345.541,209.236 343.5,208.5C 342.505,214.128 342.171,219.794 342.5,225.5C 346.39,226.223 349.056,224.89 350.5,221.5C 351.833,221.5 353.167,221.5 354.5,221.5C 354.5,222.167 354.5,222.833 354.5,223.5C 354.5,223.833 354.5,224.167 354.5,224.5C 352.99,225.836 351.323,227.003 349.5,228C 344.845,228.499 340.179,228.666 335.5,228.5C 335.167,226.5 334.833,224.5 334.5,222.5C 331.753,222.187 329.086,222.52 326.5,223.5C 325.691,225.071 325.357,226.738 325.5,228.5C 322.102,228.82 318.768,228.487 315.5,227.5C 314.321,223.115 312.987,218.781 311.5,214.5C 309.867,218.696 308.701,223.029 308,227.5C 306.506,228.747 305.006,228.747 303.5,227.5C 301.576,220.214 299.91,212.881 298.5,205.5C 299.833,205.5 301.167,205.5 302.5,205.5C 303.346,210.914 304.513,216.248 306,221.5C 307.481,216.226 308.648,210.893 309.5,205.5C 310.978,205.238 312.311,205.571 313.5,206.5C 314.523,211.257 315.856,215.924 317.5,220.5C 319.141,215.627 320.141,210.627 320.5,205.5C 321.833,205.5 323.167,205.5 324.5,205.5C 323.574,210.463 322.908,215.463 322.5,220.5 Z M 329.5,214.5 C 333.829,217.478 333.496,218.478 328.5,217.5C 329.127,216.583 329.461,215.583 329.5,214.5 Z M 322.5,220.5 C 322.628,222.655 322.128,224.655 321,226.5C 320.262,224.119 320.762,222.119 322.5,220.5 Z"/></g>
<g><path style="opacity:0.169" fill="#e2fffe" d="M 458.5,223.5 C 459.315,224.429 460.148,225.429 461,226.5C 461.667,220.167 461.667,213.833 461,207.5C 460.667,207.167 460.333,206.833 460,206.5C 459.768,207.737 459.268,208.737 458.5,209.5C 458.5,208.167 458.5,206.833 458.5,205.5C 459.822,205.33 460.989,205.663 462,206.5C 462.5,213.826 462.666,221.159 462.5,228.5C 461.167,228.5 459.833,228.5 458.5,228.5C 458.5,226.833 458.5,225.167 458.5,223.5 Z"/></g>
<g><path style="opacity:0.924" fill="#effefe" d="M 444.5,222.5 C 443.363,221.211 442.03,220.211 440.5,219.5C 440.095,214.676 440.095,210.01 440.5,205.5C 441.822,205.33 442.989,205.663 444,206.5C 444.499,211.823 444.666,217.156 444.5,222.5 Z"/></g>
<g><path style="opacity:0.408" fill="#eafefe" d="M 228.5,222.5 C 227.85,222.196 227.183,221.863 226.5,221.5C 225.599,225.272 227.266,226.938 231.5,226.5C 231.03,227.693 230.03,228.36 228.5,228.5C 227.5,228.167 226.5,227.833 225.5,227.5C 224.593,224.579 224.26,221.579 224.5,218.5C 221.391,218.264 218.391,218.597 215.5,219.5C 216.23,217.955 217.563,217.122 219.5,217C 221.769,216.242 223.936,216.409 226,217.5C 227.496,215.55 227.663,213.55 226.5,211.5C 225.818,212.243 225.151,212.909 224.5,213.5C 224.337,211.143 224.503,208.81 225,206.5C 226.011,205.663 227.178,205.33 228.5,205.5C 228.5,211.167 228.5,216.833 228.5,222.5 Z"/></g>
<g><path style="opacity:0.728" fill="#edfefe" d="M 251.5,212.5 C 252.74,215.024 253.907,217.691 255,220.5C 255.705,217.524 256.871,214.858 258.5,212.5C 258.5,214.833 258.5,217.167 258.5,219.5C 257.545,221.746 256.878,224.079 256.5,226.5C 255.325,226.719 254.325,226.386 253.5,225.5C 251.696,222.322 250.362,218.989 249.5,215.5C 251.048,215.179 251.715,214.179 251.5,212.5 Z"/></g>
<g><path style="opacity:0.735" fill="#e3fffe" d="M 439.5,219.5 C 437.741,216.81 435.407,216.144 432.5,217.5C 433.55,218.429 433.55,219.095 432.5,219.5C 430.915,218.998 430.415,217.998 431,216.5C 433.401,215.398 435.901,215.231 438.5,216C 439.337,217.011 439.67,218.178 439.5,219.5 Z"/></g>
<g><path style="opacity:0.208" fill="#e5fefe" d="M 380.5,205.5 C 379.659,207.379 379.325,209.379 379.5,211.5C 380.5,211.5 381.5,211.5 382.5,211.5C 382.5,212.167 382.5,212.833 382.5,213.5C 381.85,213.804 381.183,214.137 380.5,214.5C 379.167,218.5 379.167,222.5 380.5,226.5C 381.168,224.031 381.835,221.698 382.5,219.5C 382.5,222.5 382.5,225.5 382.5,228.5C 381.167,228.5 379.833,228.5 378.5,228.5C 377.868,220.427 378.535,212.76 380.5,205.5 Z"/></g>
<g><path style="opacity:0.548" fill="#fbfdfc" d="M 439.5,219.5 C 439.833,219.5 440.167,219.5 440.5,219.5C 442.03,220.211 443.363,221.211 444.5,222.5C 444.5,222.833 444.5,223.167 444.5,223.5C 445.701,226.983 444.868,227.316 442,224.5C 439.566,225.322 437.066,225.656 434.5,225.5C 435.301,223.958 435.634,222.292 435.5,220.5C 434.209,220.737 433.209,220.404 432.5,219.5C 433.55,219.095 433.55,218.429 432.5,217.5C 435.407,216.144 437.741,216.81 439.5,219.5 Z"/></g>
<g><path style="opacity:0.589" fill="#e0fffe" d="M 260.5,206.5 C 261.568,205.566 262.901,205.232 264.5,205.5C 264.5,213.167 264.5,220.833 264.5,228.5C 263.209,228.737 262.209,228.404 261.5,227.5C 263.461,220.913 264.128,213.913 263.5,206.5C 262.5,206.5 261.5,206.5 260.5,206.5 Z"/></g>
<g><path style="opacity:0.872" fill="#f2fefe" d="M 211.5,212.5 C 210.828,213.267 209.995,213.934 209,214.5C 208.814,217.036 208.314,219.369 207.5,221.5C 207.699,218.059 207.199,214.726 206,211.5C 203.847,208.648 201.347,208.148 198.5,210C 195.421,213.888 194.921,218.054 197,222.5C 200.294,226.473 203.46,226.473 206.5,222.5C 207.151,223.091 207.818,223.757 208.5,224.5C 209.182,223.757 209.849,223.091 210.5,222.5C 209.081,226.409 206.248,228.742 202,229.5C 199.012,228.853 195.845,228.853 192.5,229.5C 191.205,228.902 189.872,228.402 188.5,228C 188.018,226.992 187.852,225.825 188,224.5C 185.078,220.513 183.578,221.18 183.5,226.5C 182.325,226.719 181.325,226.386 180.5,225.5C 179,221.833 177.5,218.167 176,214.5C 175.501,218.486 175.334,222.486 175.5,226.5C 174.883,226.611 174.383,226.944 174,227.5C 173.5,220.508 173.334,213.508 173.5,206.5C 174.5,206.5 175.5,206.5 176.5,206.5C 178.423,211.098 180.257,215.765 182,220.5C 183.867,215.898 185.534,211.232 187,206.5C 188.494,205.253 189.994,205.253 191.5,206.5C 191.451,211.994 191.617,217.661 192,223.5C 192.333,219.5 192.667,215.5 193,211.5C 195.39,205.907 199.557,204.074 205.5,206C 208.442,207.436 210.442,209.603 211.5,212.5 Z"/></g>
<g><path style="opacity:0.872" fill="#e9fdfd" d="M 248.5,213.5 C 248.5,218.5 248.5,223.5 248.5,228.5C 246.265,228.795 244.265,228.461 242.5,227.5C 243.5,227.5 244.5,227.5 245.5,227.5C 246.071,225.64 246.071,223.973 245.5,222.5C 245.598,220.447 244.931,218.78 243.5,217.5C 243.433,216.041 243.766,214.708 244.5,213.5C 245.702,212.595 247.036,212.595 248.5,213.5 Z"/></g>
<g><path style="opacity:0.092" fill="#f2fefe" d="M 417.5,210.5 C 417.822,212.722 417.155,214.556 415.5,216C 416.448,216.483 417.448,216.649 418.5,216.5C 416.968,219.057 415.301,221.557 413.5,224C 416.619,225.405 419.952,225.905 423.5,225.5C 423.5,225.833 423.5,226.167 423.5,226.5C 423.5,227.167 423.833,227.5 424.5,227.5C 424.217,228.289 423.717,228.956 423,229.5C 412.294,229.252 401.461,228.752 390.5,228C 389.086,226.007 388.086,223.84 387.5,221.5C 388.778,221.218 389.778,220.551 390.5,219.5C 393.421,225.992 394.754,225.325 394.5,217.5C 394.435,217.062 394.601,216.728 395,216.5C 396.518,217.163 397.685,218.163 398.5,219.5C 398.651,224.63 401.651,226.463 407.5,225C 411.238,220.328 414.571,215.494 417.5,210.5 Z"/></g>
<g><path style="opacity:0.69" fill="#d6fffe" d="M 215.5,222.5 C 216.461,224.265 216.795,226.265 216.5,228.5C 214.517,228.843 213.183,228.176 212.5,226.5C 213.15,226.804 213.817,227.137 214.5,227.5C 215.452,225.955 215.785,224.288 215.5,222.5 Z"/></g>
<g><path style="opacity:0.765" fill="#e0fefe" d="M 366.5,225.5 C 370.315,224.918 373.649,225.752 376.5,228C 373,228.167 369.5,228.333 366,228.5C 362.098,228.488 358.598,227.821 355.5,226.5C 361.418,227.621 367.418,227.788 373.5,227C 370.964,226.814 368.631,226.314 366.5,225.5 Z"/></g>
<g><path style="opacity:0.992" fill="#ecfefe" d="M 427.5,223.5 C 429.479,225.168 431.812,225.834 434.5,225.5C 437.066,225.656 439.566,225.322 442,224.5C 444.868,227.316 445.701,226.983 444.5,223.5C 446.479,225.168 448.812,225.834 451.5,225.5C 451.56,226.043 451.893,226.376 452.5,226.5C 453.852,225.476 455.185,224.476 456.5,223.5C 455.355,227.29 452.688,229.29 448.5,229.5C 445.815,228.875 443.315,227.875 441,226.5C 435.905,229.673 430.738,230.007 425.5,227.5C 426.806,226.533 427.473,225.199 427.5,223.5 Z"/></g>
</svg>
